M48
;Layer_Color=9474304
;FILE_FORMAT=2:5
INCH,LZ
;TYPE=PLATED
T1F00S00C0.00787
T2F00S00C0.03543
T3F00S00C0.03937
T5F00S00C0.04000
T6F00S00C0.05118
T7F00S00C0.08661
T8F00S00C0.09055
T9F00S00C0.10827
T10F00S00C0.13386
%
T01
X0393386Y0215079
X0425433Y0204095
T02
X0449528Y0188779
X045937
X0467244
X0477087
T03
X0448307Y0062402
X0458307
X0468307
X047248Y0130079
Y0147795
X0440945Y0143583
Y0133583
X0410748Y0183504
X0400748
X0390748
T05
X0165532Y0202677
X0175531
X0185531
X0195531
X0205532
X0215531
X0225532
X0235531
X0245532
X0255532
X0265531
X0275532
X0285531
X0295532
X0305532
X0315531
Y0212677
X0305532
X0295532
X0285531
X0275532
X0265531
X0255532
X0245532
X0235531
X0225532
X0215531
X0205532
X0195531
X0185531
X0175531
X0165532
X0155532
Y0202677
X0145531
X0135531
X0125531
Y0212677
X0135531
X0145531
T06
X0462638Y0125157
Y0152717
T07
X045811Y000185
T08
X0482992Y0199291
X0443622
T09
X0334705Y0014764
X0106358
X0478307Y0092913
X0334705Y0207677
X0106358
T10
X045815Y0019606
M30
